<svg width="21" height="22" viewBox="0 0 21 22" fill="none" xmlns="http://www.w3.org/2000/svg">
<path d="M16.2562 12.2944C16.1537 12.1917 16.0319 12.1102 15.8979 12.0546C15.7638 11.999 15.6202 11.9704 15.475 11.9704C15.3299 11.9704 15.1862 11.999 15.0522 12.0546C14.9181 12.1102 14.7964 12.1917 14.6938 12.2944L12.9326 14.0556C12.116 13.8125 10.5923 13.2601 9.62655 12.2944C8.66082 11.3287 8.10835 9.80503 7.86526 8.9885L9.62655 7.22729C9.72925 7.12477 9.81072 7.003 9.86632 6.86896C9.92191 6.73492 9.95052 6.59123 9.95052 6.44612C9.95052 6.30101 9.92191 6.15732 9.86632 6.02328C9.81072 5.88924 9.72925 5.76748 9.62655 5.66496L5.20675 1.24535C5.10423 1.14265 4.98246 1.06118 4.84841 1.00559C4.71437 0.949999 4.57067 0.921387 4.42556 0.921387C4.28044 0.921387 4.13675 0.949999 4.0027 1.00559C3.86865 1.06118 3.74688 1.14265 3.64436 1.24535L0.647739 4.24184C0.227859 4.6617 -0.00860032 5.23846 0.000239271 5.82738C0.0256531 7.40076 0.442219 12.8656 4.74931 17.1725C9.0564 21.4794 14.5215 21.8949 16.096 21.9214H16.127C16.7104 21.9214 17.2617 21.6916 17.6794 21.2739L20.676 18.2774C20.7787 18.1749 20.8602 18.0531 20.9158 17.9191C20.9714 17.7851 21 17.6414 21 17.4963C21 17.3511 20.9714 17.2075 20.9158 17.0734C20.8602 16.9394 20.7787 16.8176 20.676 16.7151L16.2562 12.2944ZM16.1159 19.7105C14.7369 19.6873 10.0188 19.3171 6.3117 15.6091C2.59245 11.89 2.23223 7.15547 2.21014 5.80417L4.42556 3.58884L7.28295 6.44612L5.85426 7.87476C5.72438 8.00453 5.62889 8.16462 5.57642 8.34055C5.52394 8.51649 5.51614 8.70272 5.55371 8.88243C5.58023 9.0095 6.22883 12.0226 8.06305 13.8567C9.89726 15.6908 12.9105 16.3394 13.0375 16.3659C13.2171 16.4046 13.4036 16.3974 13.5797 16.3451C13.7558 16.2927 13.9159 16.1969 14.0452 16.0665L15.475 14.6379L18.3324 17.4951L16.1159 19.7105Z" fill="#1A182F"/>
</svg>
